<svg width="1500" height="1500" viewBox="0 0 1500 1500" fill="none" xmlns="http://www.w3.org/2000/svg">
<rect width="1500" height="1500" rx="300" fill="#092C40"/>
<circle cx="749.5" cy="750.5" r="49.5" fill="#E1A532"/>
<circle cx="22.5" cy="22.5" r="22.5" transform="matrix(-1 0 0 1 1365 727)" fill="#E1A532"/>
<rect x="752" y="746" width="595" height="10" fill="#E1A532"/>
<rect x="286" y="744" width="146" height="16" fill="#E1A532"/>
<rect x="742" y="435" width="129" height="16" transform="rotate(-90 742 435)" fill="#E1A532"/>
<rect x="742" y="1196" width="126" height="16" transform="rotate(-90 742 1196)" fill="#E1A532"/>
<path d="M714.608 811.352C714.752 811.436 714.895 811.521 715.04 811.604C737.154 824.372 763.309 823.796 784.186 812.377L549.607 1097.14L714.608 811.352Z" fill="#2475A0"/>
<path d="M820.787 749.231C820.317 725.356 807.728 702.305 785.54 689.495C785.395 689.411 785.25 689.33 785.105 689.247L950.374 402.993L820.787 749.231Z" fill="#103F59"/>
<path d="M679.792 749.095C679.305 773.766 691.812 797.946 714.545 811.314L549.542 1097.11L679.792 749.095ZM950.31 402.956L785.041 689.211C762.015 676.161 734.708 677.476 713.554 690.362L950.31 402.956Z" fill="#E1A532"/>
<path d="M750.5 255C1013.91 255 1229.32 460.548 1245.07 720H1186.95C1171.29 492.605 981.872 313 750.5 313C508.875 313 313 508.875 313 750.5C313 992.125 508.875 1188 750.5 1188C982.211 1188 1171.85 1007.87 1187.02 780H1245.13C1229.87 1039.92 1014.25 1246 750.5 1246C476.843 1246 255 1024.16 255 750.5C255 476.843 476.843 255 750.5 255Z" fill="#2475A0"/>
</svg>
